<?xml version="1.0" encoding="UTF-8" standalone="no"?>
<!-- Created with Inkscape (http://www.inkscape.org/) -->
<svg xmlns:dc="http://purl.org/dc/elements/1.1/" xmlns:cc="http://creativecommons.org/ns#" xmlns:rdf="http://www.w3.org/1999/02/22-rdf-syntax-ns#" xmlns:svg="http://www.w3.org/2000/svg" xmlns="http://www.w3.org/2000/svg" xmlns:xlink="http://www.w3.org/1999/xlink" xmlns:sodipodi="http://sodipodi.sourceforge.net/DTD/sodipodi-0.dtd" xmlns:inkscape="http://www.inkscape.org/namespaces/inkscape" id="svg2" version="1.1" inkscape:version="0.48.3.1 r9886" width="222.69492" height="342.15329" sodipodi:docname="2012-08-03-214825.jpg">
  <defs id="defs6">
    <linearGradient id="linearGradient3879">
      <stop id="stop3881" offset="0" style="stop-color:#ffffff;stop-opacity:1;"/>
      <stop id="stop3883" offset="1" style="stop-color:#e2e2e2;stop-opacity:1;"/>
    </linearGradient>
    <linearGradient id="linearGradient3873">
      <stop id="stop3875" offset="0" style="stop-color:#fdeff3;stop-opacity:1;"/>
      <stop id="stop3877" offset="1" style="stop-color:#ffd0e0;stop-opacity:1;"/>
    </linearGradient>
    <linearGradient id="linearGradient3855">
      <stop style="stop-color:#df9d92;stop-opacity:1;" offset="0" id="stop3857"/>
      <stop style="stop-color:#eecac4;stop-opacity:1;" offset="1" id="stop3859"/>
    </linearGradient>
    <linearGradient id="linearGradient3823">
      <stop style="stop-color:#ffffff;stop-opacity:1;" offset="0" id="stop3825"/>
      <stop style="stop-color:#bcbcbc;stop-opacity:1;" offset="1" id="stop3827"/>
    </linearGradient>
    <linearGradient id="linearGradient3805">
      <stop style="stop-color:#fdeff3;stop-opacity:1;" offset="0" id="stop3807"/>
      <stop style="stop-color:#ffd0e0;stop-opacity:1;" offset="1" id="stop3809"/>
    </linearGradient>
    <radialGradient inkscape:collect="always" xlink:href="#linearGradient3873" id="radialGradient3811" cx="287.7966" cy="206.67833" fx="287.7966" fy="206.67833" r="104.73729" gradientTransform="matrix(1,0,0,1.4877452,-176.95763,-121.15383)" gradientUnits="userSpaceOnUse"/>
    <radialGradient inkscape:collect="always" xlink:href="#linearGradient3805" id="radialGradient3819" cx="287.7966" cy="206.67833" fx="287.7966" fy="206.67833" r="104.73729" gradientTransform="matrix(1,0,0,1.4877452,-176.95763,-121.15383)" gradientUnits="userSpaceOnUse"/>
    <radialGradient inkscape:collect="always" xlink:href="#linearGradient3823" id="radialGradient3829" cx="287.66949" cy="282.94363" fx="287.66949" fy="282.94363" r="45.372879" gradientTransform="matrix(1.2147562,0.04983488,-0.02744115,0.66889494,-230.97211,59.000615)" gradientUnits="userSpaceOnUse"/>
    <radialGradient inkscape:collect="always" xlink:href="#linearGradient3805" id="radialGradient3837" cx="392.09744" cy="216.80666" fx="392.09744" fy="216.80666" r="8.1355953" gradientTransform="matrix(1,0,0,3.5641466,-176.95763,-577.68902)" gradientUnits="userSpaceOnUse"/>
    <radialGradient inkscape:collect="always" xlink:href="#linearGradient3805" id="radialGradient3845" cx="186.73727" cy="213.07977" fx="186.73727" fy="213.07977" r="9.025425" gradientTransform="matrix(1,0,0,3.5460905,-176.95763,-562.86783)" gradientUnits="userSpaceOnUse"/>
    <radialGradient inkscape:collect="always" xlink:href="#linearGradient3855" id="radialGradient3861" cx="288.43222" cy="287.03076" fx="288.43222" fy="287.03076" r="45.254234" gradientTransform="matrix(1,0,0,0.32727685,-176.95763,172.74478)" gradientUnits="userSpaceOnUse"/>
    <radialGradient inkscape:collect="always" xlink:href="#linearGradient3879" id="radialGradient3871" cx="711.37482" cy="299.09827" fx="711.37482" fy="299.09827" r="31.535858" gradientTransform="matrix(1,0,0,0.25405636,-599.50001,188.52571)" gradientUnits="userSpaceOnUse"/>
  </defs>
  <sodipodi:namedview pagecolor="#ffffff" bordercolor="#666666" borderopacity="1" objecttolerance="10" gridtolerance="10" guidetolerance="10" inkscape:pageopacity="0" inkscape:pageshadow="2" inkscape:window-width="1391" inkscape:window-height="876" id="namedview4" showgrid="false" fit-margin-top="0" fit-margin-left="0" fit-margin-right="0" fit-margin-bottom="0" inkscape:zoom="1.3906433" inkscape:cx="71.594367" inkscape:cy="168.19923" inkscape:window-x="49" inkscape:window-y="24" inkscape:window-maximized="1" inkscape:current-layer="svg2"/>
  <path style="fill:url(#radialGradient3819);fill-opacity:1;stroke:url(#radialGradient3811);stroke-width:1px;stroke-linecap:butt;stroke-linejoin:miter;stroke-opacity:1" d="m 10.66949,183.04237 c 4.23887,17.8211 -9.17292,62.64385 51.35593,125.59322 22.96143,17.76437 36.83887,55.21071 86.44068,15.25424 17.11864,-19.40678 40.31449,-41.86324 49.83051,-72.71187 5.61947,-14.06148 11.18965,-48.18565 16.77966,-74.23728 L 205.92373,86.432203 C 197.51698,61.79619 182.12379,40.81974 145.41525,31.008475 l -88.98305,0 -32.0339,42.20339 -17.79661,74.745755 z" id="path3799" inkscape:connector-curvature="0" sodipodi:nodetypes="ccccccccccc"/>
  <path sodipodi:nodetypes="cccc" inkscape:connector-curvature="0" id="path3803" d="m 214.82203,175.92373 c -0.24331,-5.14081 -1.64282,-14.5289 7.11865,-1.01695 -1.77654,35.44954 -3.43642,45.54784 -16.27119,51.10169 z" style="fill:url(#radialGradient3837);fill-opacity:1;stroke:none"/>
  <path style="fill:url(#radialGradient3845);fill-opacity:1;stroke:none" d="m 8.63559,174.90678 c 2.33235,-15.84401 -0.0455,-18.81357 -7.88136,-6.86441 3.30196,32.65293 8.26693,46.56479 18.05085,56.69491 z" id="path3801" inkscape:connector-curvature="0" sodipodi:nodetypes="cccc"/>
  <path style="fill:#4e3b2c;fill-opacity:1;stroke:#4e3b2c;stroke-width:1px;stroke-linecap:butt;stroke-linejoin:miter;stroke-opacity:1" d="M 0.5,145.41525 C 6.61648,58.107898 44.13757,2.417393 108.80508,0.5 159.6406,2.105977 218.09719,27.229734 222.19491,152.5339 l -6.10169,33.05084 C 208.88273,159.35238 211.98988,127.34663 200.33051,96.093223 194.23193,67.01411 183.37684,43.14059 159.65254,41.177967 c -26.5362,6.635574 -47.10729,7.929298 -63.05085,-1e-6 C 78.51444,32.153499 62.98524,39.660494 47.78813,49.31356 9.32133,94.906783 20.98596,140.5 10.16101,186.09322 5.88298,182.0531 2.09238,173.6262 0.5,145.41525 z" id="path2987" inkscape:connector-curvature="0" sodipodi:nodetypes="cccccccccc"/>
  <path style="fill:#4e3b2c;fill-opacity:1;stroke:#4e3b2c;stroke-width:1px;stroke-linecap:butt;stroke-linejoin:miter;stroke-opacity:1" d="m 157.11017,127.61864 c 31.55962,-2.29462 29.95541,9.40176 42.20339,15.25424 -12.7174,-2.93826 -26.85339,-9.60031 -37.11865,-6.1017 -4.75367,4.06141 -13.00057,4.45554 -26.56779,1.39831 -1.0072,-4.46949 1.65614,-7.94322 7.75423,-11.05932 9.46908,-0.4687 11.92828,-0.0231 13.72882,0.50847 z" id="path2991" inkscape:connector-curvature="0" sodipodi:nodetypes="cccccc"/>
  <path style="fill:#ab8d90;fill-opacity:1;stroke:#ab8d90;stroke-width:0.69999999;stroke-linecap:butt;stroke-linejoin:miter;stroke-miterlimit:4;stroke-opacity:1;stroke-dasharray:none" d="m 84.3983,221.94068 c 3.62734,7.88278 53.25011,5.66185 52.62712,0 -3.92073,-0.0624 -7.68497,0.18812 -12.08228,-0.82748 -10.12719,7.6815 -19.52704,8.3079 -27.96009,-0.44372 -3.74835,1.31686 -7.98946,1.64821 -12.58475,1.2712 z" id="path3821" inkscape:connector-curvature="0" sodipodi:nodetypes="ccccc"/>
  <path style="fill:none;stroke:#ffc5d4;stroke-width:1px;stroke-linecap:butt;stroke-linejoin:miter;stroke-opacity:1" d="m 91.51695,131.68644 c 8.52366,9.85223 18.30551,18.41481 13.72881,41.69491 -14.80238,29.03464 -12.66679,26.50305 -13.22034,28.98305 0.75158,6.51743 2.67972,11.98885 4.83051,18.05085 8.18545,8.28474 17.28356,9.65935 27.83898,0 2.95437,-6.68866 5.32153,-12.92007 6.86441,-18.81356 -0.81058,-7.04175 -5.57593,-20.16901 -8.51695,-30.25424 -5.57811,-22.03799 3.93274,-31.4172 8.38983,-36.73728" id="path2993" inkscape:connector-curvature="0" sodipodi:nodetypes="cccccccc"/>
  <path style="fill:none;stroke:#ffc5d4;stroke-width:1px;stroke-linecap:butt;stroke-linejoin:miter;stroke-opacity:1" d="m 130.66949,196.26271 c 17.52556,17.82041 19.42673,29.12489 -6.26059,24.15254" id="path2995" inkscape:connector-curvature="0" sodipodi:nodetypes="cc"/>
  <path sodipodi:nodetypes="cc" inkscape:connector-curvature="0" id="path2999" d="m 94.04877,195.62712 c -17.52556,17.82041 -22.47757,29.8876 3.20975,24.91525" style="fill:none;stroke:#ffc5d4;stroke-width:1px;stroke-linecap:butt;stroke-linejoin:miter;stroke-opacity:1"/>
  <path sodipodi:nodetypes="cccccc" inkscape:connector-curvature="0" id="path3001" d="m 68.04634,127.61864 c -31.55962,-2.29462 -29.95541,9.40176 -42.20339,15.25424 12.7174,-2.93826 26.85339,-9.60031 37.11865,-6.1017 4.75367,4.06141 13.00057,4.45554 26.56779,1.39831 1.0072,-4.46949 -1.65614,-7.94322 -7.75423,-11.05932 -9.46908,-0.4687 -11.92828,-0.0231 -13.72882,0.50847 z" style="fill:#4e3b2c;fill-opacity:1;stroke:#4e3b2c;stroke-width:1px;stroke-linecap:butt;stroke-linejoin:miter;stroke-opacity:1"/>
  <path style="fill:#fdfaf9;fill-opacity:1;stroke:none" d="m 140.20339,161.68643 c 17.46618,-16.38022 27.78414,-14.39778 40.2966,-0.88983 -20.79143,12.98501 -33.56088,5.22639 -40.2966,0.88983 z" id="path3003" inkscape:connector-curvature="0" sodipodi:nodetypes="ccc"/>
  <path style="fill:none;stroke:#ffd7e1;stroke-width:1px;stroke-linecap:butt;stroke-linejoin:miter;stroke-opacity:1" d="m 143.50847,205.66949 c 13.77413,12.85115 20.827,18.8272 31.90679,39.66101" id="path3775" inkscape:connector-curvature="0" sodipodi:nodetypes="cc"/>
  <path style="fill:none;stroke:#ffc5d4;stroke-width:1px;stroke-linecap:butt;stroke-linejoin:miter;stroke-opacity:1" d="m 164.99153,243.04237 c 2.52034,3.70735 1.68076,6.29472 1.27118,9.02543" id="path3777" inkscape:connector-curvature="0" sodipodi:nodetypes="cc"/>
  <path sodipodi:nodetypes="cc" inkscape:connector-curvature="0" id="path3779" d="m 78.76589,205.66949 c -13.77413,12.85115 -20.827,18.8272 -31.90679,39.66101" style="fill:none;stroke:#ffd7e1;stroke-width:1px;stroke-linecap:butt;stroke-linejoin:miter;stroke-opacity:1"/>
  <path sodipodi:nodetypes="cc" inkscape:connector-curvature="0" id="path3781" d="m 59.31673,244.56779 c -2.52034,3.70735 -1.68076,6.29472 -1.27118,9.02543" style="fill:none;stroke:#ffc5d4;stroke-width:1px;stroke-linecap:butt;stroke-linejoin:miter;stroke-opacity:1"/>
  <path style="fill:url(#radialGradient3861);fill-opacity:1;stroke:none" d="m 66.22034,251.94068 c 15.09143,-0.35686 29.996,0.76555 47.28506,1.61076 12.39579,0.60599 27.39442,-2.6757 43.22341,-0.97517 -17.15038,37.96774 -69.23767,39.35617 -90.50847,-0.63559 z" id="path3785" inkscape:connector-curvature="0" sodipodi:nodetypes="cscc"/>
  <path style="fill:url(#radialGradient3829);fill-opacity:1;stroke:none" d="m 66.98305,252.95762 c 15.2352,1.6378 35.16112,3.66505 45.29917,5.3608 14.3023,-1.48793 30.5648,-3.26058 43.42964,-4.72521 -35.22072,26.55321 -55.07848,21.67456 -88.72881,-0.63559 z" id="path3783" inkscape:connector-curvature="0" sodipodi:nodetypes="cccc"/>
  <path style="fill:url(#radialGradient3871);fill-opacity:1;stroke:none" d="m 81.09321,261.72881 c 1.32154,-3.82472 2.15281,-9.11469 4.13136,1.84322 1.84283,-14.11069 7.58649,-1.55601 6.41949,3.05085 1.4683,-20.54149 10.45268,-3.79151 9.08899,2.98729 2.054,-20.34298 13.8104,-10.63601 10.99576,1.90678 1.3892,-17.71935 11.47915,-18.23434 11.56779,-1.01695 0.5331,-11.89918 9.4128,-22.95483 10.04237,-3.36865 0.13395,-13.75521 6.16577,-11.20251 5.46611,-2.54237 1.30052,-9.35155 4.37706,-8.46408 3.94067,-2.28813 -30.24222,19.18547 -52.26485,4.10051 -61.65254,-0.57204 z" id="path3863" inkscape:connector-curvature="0" sodipodi:nodetypes="cccccccccc"/>
  <path sodipodi:type="arc" style="fill:#747197;fill-opacity:1;stroke:#747197;stroke-width:1.20000005;stroke-linecap:square;stroke-linejoin:round;stroke-miterlimit:10;stroke-opacity:1;stroke-dasharray:none;stroke-dashoffset:0" id="path3787" sodipodi:cx="334.44916" sodipodi:cy="180.25424" sodipodi:rx="8.7711868" sodipodi:ry="7.7542372" d="m 343.22034,180.25424 a 8.7711868,7.7542372 0 1 1 -17.54237,0 8.7711868,7.7542372 0 1 1 17.54237,0 z" transform="translate(-176.95763,-20.347457)"/>
  <path d="m 343.22034,180.25424 a 8.7711868,7.7542372 0 1 1 -17.54237,0 8.7711868,7.7542372 0 1 1 17.54237,0 z" sodipodi:ry="7.7542372" sodipodi:rx="8.7711868" sodipodi:cy="180.25424" sodipodi:cx="334.44916" id="path3789" style="fill:#23150c;fill-opacity:1;stroke:#23150c;stroke-width:3.08689308;stroke-linecap:square;stroke-linejoin:round;stroke-miterlimit:10;stroke-opacity:1;stroke-dasharray:none;stroke-dashoffset:0" sodipodi:type="arc" transform="matrix(0.39130437,0,0,0.38619324,26.36586,89.856253)"/>
  <path sodipodi:nodetypes="ccc" inkscape:connector-curvature="0" id="path3791" d="m 84.3983,157.3644 c -17.46618,-16.38022 -27.78414,-14.39778 -40.2966,-0.88983 20.79143,12.98501 33.56088,5.22639 40.2966,0.88983 z" style="fill:#fdfaf9;fill-opacity:1;stroke:none"/>
  <path d="m 343.22034,180.25424 a 8.7711868,7.7542372 0 1 1 -17.54237,0 8.7711868,7.7542372 0 1 1 17.54237,0 z" sodipodi:ry="7.7542372" sodipodi:rx="8.7711868" sodipodi:cy="180.25424" sodipodi:cx="334.44916" id="path3795" style="fill:#747197;fill-opacity:1;stroke:#747197;stroke-width:1.20000005;stroke-linecap:square;stroke-linejoin:round;stroke-miterlimit:10;stroke-opacity:1;stroke-dasharray:none;stroke-dashoffset:0" sodipodi:type="arc" transform="matrix(-1,0,0,1,401.55932,-24.669491)"/>
  <path transform="matrix(-0.39130437,0,0,0.38619324,197.72735,86.042703)" sodipodi:type="arc" style="fill:#23150c;fill-opacity:1;stroke:#23150c;stroke-width:3.08689308;stroke-linecap:square;stroke-linejoin:round;stroke-miterlimit:10;stroke-opacity:1;stroke-dasharray:none;stroke-dashoffset:0" id="path3797" sodipodi:cx="334.44916" sodipodi:cy="180.25424" sodipodi:rx="8.7711868" sodipodi:ry="7.7542372" d="m 343.22034,180.25424 a 8.7711868,7.7542372 0 1 1 -17.54237,0 8.7711868,7.7542372 0 1 1 17.54237,0 z"/>
  <path style="fill:none;stroke:#fee3eb;stroke-width:1px;stroke-linecap:round;stroke-linejoin:round;stroke-opacity:1" d="m 190.0339,156.60169 -7.62712,4.57628 10.16949,-0.25424 -9.91525,0.25424 7.11864,3.81355" id="path3851" inkscape:connector-curvature="0"/>
  <path inkscape:connector-curvature="0" id="path3853" d="m 34.5678,151.77118 7.62712,4.57628 -10.16949,-0.25424 9.91525,0.25424 -7.11864,3.81355" style="fill:none;stroke:#fee3eb;stroke-width:1px;stroke-linecap:round;stroke-linejoin:round;stroke-opacity:1"/>
  <path transform="matrix(0.40000001,0,0,0.50000001,-17.27754,69.07065)" d="m 178.87405,233.08191 a 0.44943228,0.35954583 0 1 1 -0.89886,0 0.44943228,0.35954583 0 1 1 0.89886,0 z" sodipodi:ry="0.35954583" sodipodi:rx="0.44943228" sodipodi:cy="233.08191" sodipodi:cx="178.42462" id="path3919" style="fill:#f5863d;fill-opacity:1;stroke:none" sodipodi:type="arc"/>
  <path transform="matrix(0.40000001,0,0,0.50000001,-15.4566,77.91294)" d="m 178.87405,233.08191 a 0.44943228,0.35954583 0 1 1 -0.89886,0 0.44943228,0.35954583 0 1 1 0.89886,0 z" sodipodi:ry="0.35954583" sodipodi:rx="0.44943228" sodipodi:cy="233.08191" sodipodi:cx="178.42462" id="path3921" style="fill:#f5863d;fill-opacity:1;stroke:none" sodipodi:type="arc"/>
  <path transform="matrix(0.40000001,0,0,0.50000001,-26.44271,75.62636)" d="m 178.87405,233.08191 a 0.44943228,0.35954583 0 1 1 -0.89886,0 0.44943228,0.35954583 0 1 1 0.89886,0 z" sodipodi:ry="0.35954583" sodipodi:rx="0.44943228" sodipodi:cy="233.08191" sodipodi:cx="178.42462" id="path3923" style="fill:#f5863d;fill-opacity:1;stroke:none" sodipodi:type="arc"/>
  <path transform="matrix(0.40000001,0,0,0.50000001,-25.20804,85.526613)" d="m 178.87405,233.08191 a 0.44943228,0.35954583 0 1 1 -0.89886,0 0.44943228,0.35954583 0 1 1 0.89886,0 z" sodipodi:ry="0.35954583" sodipodi:rx="0.44943228" sodipodi:cy="233.08191" sodipodi:cx="178.42462" id="path3925" style="fill:#f5863d;fill-opacity:1;stroke:none" sodipodi:type="arc"/>
  <path transform="matrix(0.40000001,0,0,0.50000001,-20.84003,87.503033)" d="m 178.87405,233.08191 a 0.44943228,0.35954583 0 1 1 -0.89886,0 0.44943228,0.35954583 0 1 1 0.89886,0 z" sodipodi:ry="0.35954583" sodipodi:rx="0.44943228" sodipodi:cy="233.08191" sodipodi:cx="178.42462" id="path3927" style="fill:#f5863d;fill-opacity:1;stroke:none" sodipodi:type="arc"/>
  <path transform="matrix(0.40000001,0,0,0.50000001,-21.85419,92.235713)" d="m 178.87405,233.08191 a 0.44943228,0.35954583 0 1 1 -0.89886,0 0.44943228,0.35954583 0 1 1 0.89886,0 z" sodipodi:ry="0.35954583" sodipodi:rx="0.44943228" sodipodi:cy="233.08191" sodipodi:cx="178.42462" id="path3929" style="fill:#f5863d;fill-opacity:1;stroke:none" sodipodi:type="arc"/>
  <path transform="matrix(0.40000001,0,0,0.50000001,2.10399,77.563029)" d="m 178.87405,233.08191 a 0.44943228,0.35954583 0 1 1 -0.89886,0 0.44943228,0.35954583 0 1 1 0.89886,0 z" sodipodi:ry="0.35954583" sodipodi:rx="0.44943228" sodipodi:cy="233.08191" sodipodi:cx="178.42462" id="path3931" style="fill:#f5863d;fill-opacity:1;stroke:none" sodipodi:type="arc"/>
  <path transform="matrix(0.40000001,0,0,0.50000001,-0.71094,69.745938)" d="m 178.87405,233.08191 a 0.44943228,0.35954583 0 1 1 -0.89886,0 0.44943228,0.35954583 0 1 1 0.89886,0 z" sodipodi:ry="0.35954583" sodipodi:rx="0.44943228" sodipodi:cy="233.08191" sodipodi:cx="178.42462" id="path3933" style="fill:#f5863d;fill-opacity:1;stroke:none" sodipodi:type="arc"/>
  <path transform="matrix(0.40000001,0,0,0.50000001,10.80608,59.004065)" d="m 178.87405,233.08191 a 0.44943228,0.35954583 0 1 1 -0.89886,0 0.44943228,0.35954583 0 1 1 0.89886,0 z" sodipodi:ry="0.35954583" sodipodi:rx="0.44943228" sodipodi:cy="233.08191" sodipodi:cx="178.42462" id="path3935" style="fill:#f5863d;fill-opacity:1;stroke:none" sodipodi:type="arc"/>
  <path transform="matrix(0.40000001,0,0,0.50000001,98.63244,84.979623)" d="m 178.87405,233.08191 a 0.44943228,0.35954583 0 1 1 -0.89886,0 0.44943228,0.35954583 0 1 1 0.89886,0 z" sodipodi:ry="0.35954583" sodipodi:rx="0.44943228" sodipodi:cy="233.08191" sodipodi:cx="178.42462" id="path3937" style="fill:#f5863d;fill-opacity:1;stroke:none" sodipodi:type="arc"/>
  <path transform="matrix(0.40000001,0,0,0.50000001,107.38944,86.394563)" d="m 178.87405,233.08191 a 0.44943228,0.35954583 0 1 1 -0.89886,0 0.44943228,0.35954583 0 1 1 0.89886,0 z" sodipodi:ry="0.35954583" sodipodi:rx="0.44943228" sodipodi:cy="233.08191" sodipodi:cx="178.42462" id="path3939" style="fill:#f5863d;fill-opacity:1;stroke:none" sodipodi:type="arc"/>
  <path transform="matrix(0.40000001,0,0,0.50000001,99.54952,90.161163)" d="m 178.87405,233.08191 a 0.44943228,0.35954583 0 1 1 -0.89886,0 0.44943228,0.35954583 0 1 1 0.89886,0 z" sodipodi:ry="0.35954583" sodipodi:rx="0.44943228" sodipodi:cy="233.08191" sodipodi:cx="178.42462" id="path3941" style="fill:#f5863d;fill-opacity:1;stroke:none" sodipodi:type="arc"/>
  <path transform="matrix(0.40000001,0,0,0.50000001,106.26698,109.88509)" d="m 178.87405,233.08191 a 0.44943228,0.35954583 0 1 1 -0.89886,0 0.44943228,0.35954583 0 1 1 0.89886,0 z" sodipodi:ry="0.35954583" sodipodi:rx="0.44943228" sodipodi:cy="233.08191" sodipodi:cx="178.42462" id="path3943" style="fill:#f5863d;fill-opacity:1;stroke:none" sodipodi:type="arc"/>
  <path transform="matrix(0.40000001,0,0,0.50000001,91.65317,84.821853)" d="m 178.87405,233.08191 a 0.44943228,0.35954583 0 1 1 -0.89886,0 0.44943228,0.35954583 0 1 1 0.89886,0 z" sodipodi:ry="0.35954583" sodipodi:rx="0.44943228" sodipodi:cy="233.08191" sodipodi:cx="178.42462" id="path3945" style="fill:#f5863d;fill-opacity:1;stroke:none" sodipodi:type="arc"/>
  <path transform="matrix(0.40000001,0,0,0.50000001,87.38752,83.845703)" d="m 178.87405,233.08191 a 0.44943228,0.35954583 0 1 1 -0.89886,0 0.44943228,0.35954583 0 1 1 0.89886,0 z" sodipodi:ry="0.35954583" sodipodi:rx="0.44943228" sodipodi:cy="233.08191" sodipodi:cx="178.42462" id="path3947" style="fill:#f5863d;fill-opacity:1;stroke:none" sodipodi:type="arc"/>
  <path transform="matrix(0.40000001,0,0,0.50000001,81.62368,71.357976)" d="m 178.87405,233.08191 a 0.44943228,0.35954583 0 1 1 -0.89886,0 0.44943228,0.35954583 0 1 1 0.89886,0 z" sodipodi:ry="0.35954583" sodipodi:rx="0.44943228" sodipodi:cy="233.08191" sodipodi:cx="178.42462" id="path3949" style="fill:#f5863d;fill-opacity:1;stroke:none" sodipodi:type="arc"/>
  <path transform="matrix(0.40000001,0,0,0.50000001,78.84017,67.257291)" d="m 178.87405,233.08191 a 0.44943228,0.35954583 0 1 1 -0.89886,0 0.44943228,0.35954583 0 1 1 0.89886,0 z" sodipodi:ry="0.35954583" sodipodi:rx="0.44943228" sodipodi:cy="233.08191" sodipodi:cx="178.42462" id="path3951" style="fill:#f5863d;fill-opacity:1;stroke:none" sodipodi:type="arc"/>
  <path transform="matrix(0.40000001,0,0,0.50000001,76.05815,60.155664)" d="m 178.87405,233.08191 a 0.44943228,0.35954583 0 1 1 -0.89886,0 0.44943228,0.35954583 0 1 1 0.89886,0 z" sodipodi:ry="0.35954583" sodipodi:rx="0.44943228" sodipodi:cy="233.08191" sodipodi:cx="178.42462" id="path3953" style="fill:#f5863d;fill-opacity:1;stroke:none" sodipodi:type="arc"/>
  <path transform="matrix(0.40000001,0,0,0.50000001,88.67671,72.514612)" d="m 178.87405,233.08191 a 0.44943228,0.35954583 0 1 1 -0.89886,0 0.44943228,0.35954583 0 1 1 0.89886,0 z" sodipodi:ry="0.35954583" sodipodi:rx="0.44943228" sodipodi:cy="233.08191" sodipodi:cx="178.42462" id="path3955" style="fill:#f5863d;fill-opacity:1;stroke:none" sodipodi:type="arc"/>
  <path transform="matrix(0.40000001,0,0,0.50000001,83.75879,73.808061)" d="m 178.87405,233.08191 a 0.44943228,0.35954583 0 1 1 -0.89886,0 0.44943228,0.35954583 0 1 1 0.89886,0 z" sodipodi:ry="0.35954583" sodipodi:rx="0.44943228" sodipodi:cy="233.08191" sodipodi:cx="178.42462" id="path3957" style="fill:#f5863d;fill-opacity:1;stroke:none" sodipodi:type="arc"/>
  <path transform="matrix(0.40000001,0,0,0.50000001,84.93849,73.455035)" d="m 178.87405,233.08191 a 0.44943228,0.35954583 0 1 1 -0.89886,0 0.44943228,0.35954583 0 1 1 0.89886,0 z" sodipodi:ry="0.35954583" sodipodi:rx="0.44943228" sodipodi:cy="233.08191" sodipodi:cx="178.42462" id="path3959" style="fill:#f5863d;fill-opacity:1;stroke:none" sodipodi:type="arc"/>
  <path transform="matrix(0.40000001,0,0,0.50000001,108.68165,81.797803)" d="m 178.87405,233.08191 a 0.44943228,0.35954583 0 1 1 -0.89886,0 0.44943228,0.35954583 0 1 1 0.89886,0 z" sodipodi:ry="0.35954583" sodipodi:rx="0.44943228" sodipodi:cy="233.08191" sodipodi:cx="178.42462" id="path3961" style="fill:#f5863d;fill-opacity:1;stroke:none" sodipodi:type="arc"/>
  <path transform="matrix(0.40000001,0,0,0.50000001,104.54464,84.731513)" d="m 178.87405,233.08191 a 0.44943228,0.35954583 0 1 1 -0.89886,0 0.44943228,0.35954583 0 1 1 0.89886,0 z" sodipodi:ry="0.35954583" sodipodi:rx="0.44943228" sodipodi:cy="233.08191" sodipodi:cx="178.42462" id="path3963" style="fill:#f5863d;fill-opacity:1;stroke:none" sodipodi:type="arc"/>
  <path transform="matrix(0.40000001,0,0,0.50000001,111.48104,76.887811)" d="m 178.87405,233.08191 a 0.44943228,0.35954583 0 1 1 -0.89886,0 0.44943228,0.35954583 0 1 1 0.89886,0 z" sodipodi:ry="0.35954583" sodipodi:rx="0.44943228" sodipodi:cy="233.08191" sodipodi:cx="178.42462" id="path3965" style="fill:#f5863d;fill-opacity:1;stroke:none" sodipodi:type="arc"/>
  <path transform="matrix(0.40000001,0,0,0.50000001,108.56527,72.969469)" d="m 178.87405,233.08191 a 0.44943228,0.35954583 0 1 1 -0.89886,0 0.44943228,0.35954583 0 1 1 0.89886,0 z" sodipodi:ry="0.35954583" sodipodi:rx="0.44943228" sodipodi:cy="233.08191" sodipodi:cx="178.42462" id="path3967" style="fill:#f5863d;fill-opacity:1;stroke:none" sodipodi:type="arc"/>
  <path transform="matrix(0.40000001,0,0,0.50000001,75.14108,63.812558)" d="m 178.87405,233.08191 a 0.44943228,0.35954583 0 1 1 -0.89886,0 0.44943228,0.35954583 0 1 1 0.89886,0 z" sodipodi:ry="0.35954583" sodipodi:rx="0.44943228" sodipodi:cy="233.08191" sodipodi:cx="178.42462" id="path3969" style="fill:#f5863d;fill-opacity:1;stroke:none" sodipodi:type="arc"/>
  <path transform="matrix(0.40000001,0,0,0.50000001,83.41709,73.346507)" d="m 178.87405,233.08191 a 0.44943228,0.35954583 0 1 1 -0.89886,0 0.44943228,0.35954583 0 1 1 0.89886,0 z" sodipodi:ry="0.35954583" sodipodi:rx="0.44943228" sodipodi:cy="233.08191" sodipodi:cx="178.42462" id="path3971" style="fill:#f5863d;fill-opacity:1;stroke:none" sodipodi:type="arc"/>
  <path transform="matrix(0.40000001,0,0,0.50000001,85.34289,76.511156)" d="m 178.87405,233.08191 a 0.44943228,0.35954583 0 1 1 -0.89886,0 0.44943228,0.35954583 0 1 1 0.89886,0 z" sodipodi:ry="0.35954583" sodipodi:rx="0.44943228" sodipodi:cy="233.08191" sodipodi:cx="178.42462" id="path3973" style="fill:#f5863d;fill-opacity:1;stroke:none" sodipodi:type="arc"/>
  <path transform="matrix(0.40000001,0,0,0.50000001,107.08807,89.436423)" d="m 178.87405,233.08191 a 0.44943228,0.35954583 0 1 1 -0.89886,0 0.44943228,0.35954583 0 1 1 0.89886,0 z" sodipodi:ry="0.35954583" sodipodi:rx="0.44943228" sodipodi:cy="233.08191" sodipodi:cx="178.42462" id="path3975" style="fill:#f5863d;fill-opacity:1;stroke:none" sodipodi:type="arc"/>
  <path transform="matrix(0.40000001,0,0,0.50000001,109.83457,101.65721)" d="m 178.87405,233.08191 a 0.44943228,0.35954583 0 1 1 -0.89886,0 0.44943228,0.35954583 0 1 1 0.89886,0 z" sodipodi:ry="0.35954583" sodipodi:rx="0.44943228" sodipodi:cy="233.08191" sodipodi:cx="178.42462" id="path3977" style="fill:#f5863d;fill-opacity:1;stroke:none" sodipodi:type="arc"/>
  <path transform="matrix(0.40000001,0,0,0.50000001,116.13042,106.08917)" d="m 178.87405,233.08191 a 0.44943228,0.35954583 0 1 1 -0.89886,0 0.44943228,0.35954583 0 1 1 0.89886,0 z" sodipodi:ry="0.35954583" sodipodi:rx="0.44943228" sodipodi:cy="233.08191" sodipodi:cx="178.42462" id="path3979" style="fill:#f5863d;fill-opacity:1;stroke:none" sodipodi:type="arc"/>
  <path transform="matrix(0.40000001,0,0,0.50000001,110.61124,105.67253)" d="m 178.87405,233.08191 a 0.44943228,0.35954583 0 1 1 -0.89886,0 0.44943228,0.35954583 0 1 1 0.89886,0 z" sodipodi:ry="0.35954583" sodipodi:rx="0.44943228" sodipodi:cy="233.08191" sodipodi:cx="178.42462" id="path3981" style="fill:#f5863d;fill-opacity:1;stroke:none" sodipodi:type="arc"/>
  <path transform="matrix(0.40000001,0,0,0.50000001,98.49912,79.921943)" d="m 178.87405,233.08191 a 0.44943228,0.35954583 0 1 1 -0.89886,0 0.44943228,0.35954583 0 1 1 0.89886,0 z" sodipodi:ry="0.35954583" sodipodi:rx="0.44943228" sodipodi:cy="233.08191" sodipodi:cx="178.42462" id="path3983" style="fill:#f5863d;fill-opacity:1;stroke:none" sodipodi:type="arc"/>
  <path transform="matrix(0.40000001,0,0,0.50000001,10.94538,72.353697)" d="m 178.87405,233.08191 a 0.44943228,0.35954583 0 1 1 -0.89886,0 0.44943228,0.35954583 0 1 1 0.89886,0 z" sodipodi:ry="0.35954583" sodipodi:rx="0.44943228" sodipodi:cy="233.08191" sodipodi:cx="178.42462" id="path3985" style="fill:#f5863d;fill-opacity:1;stroke:none" sodipodi:type="arc"/>
  <path transform="matrix(0.40000001,0,0,0.50000001,-21.5343,96.727573)" d="m 178.87405,233.08191 a 0.44943228,0.35954583 0 1 1 -0.89886,0 0.44943228,0.35954583 0 1 1 0.89886,0 z" sodipodi:ry="0.35954583" sodipodi:rx="0.44943228" sodipodi:cy="233.08191" sodipodi:cx="178.42462" id="path3987" style="fill:#f5863d;fill-opacity:1;stroke:none" sodipodi:type="arc"/>
  <path transform="matrix(0.40000001,0,0,0.50000001,-24.61925,90.403623)" d="m 178.87405,233.08191 a 0.44943228,0.35954583 0 1 1 -0.89886,0 0.44943228,0.35954583 0 1 1 0.89886,0 z" sodipodi:ry="0.35954583" sodipodi:rx="0.44943228" sodipodi:cy="233.08191" sodipodi:cx="178.42462" id="path3989" style="fill:#f5863d;fill-opacity:1;stroke:none" sodipodi:type="arc"/>
  <path transform="matrix(0.40000001,0,0,0.50000001,-5.66186,73.902803)" d="m 178.87405,233.08191 a 0.44943228,0.35954583 0 1 1 -0.89886,0 0.44943228,0.35954583 0 1 1 0.89886,0 z" sodipodi:ry="0.35954583" sodipodi:rx="0.44943228" sodipodi:cy="233.08191" sodipodi:cx="178.42462" id="path3991" style="fill:#f5863d;fill-opacity:1;stroke:none" sodipodi:type="arc"/>
  <path transform="matrix(0.40000001,0,0,0.50000001,-4.5882,64.719471)" d="m 178.87405,233.08191 a 0.44943228,0.35954583 0 1 1 -0.89886,0 0.44943228,0.35954583 0 1 1 0.89886,0 z" sodipodi:ry="0.35954583" sodipodi:rx="0.44943228" sodipodi:cy="233.08191" sodipodi:cx="178.42462" id="path3993" style="fill:#f5863d;fill-opacity:1;stroke:none" sodipodi:type="arc"/>
  <path transform="matrix(0.40000001,0,0,0.50000001,-13.82189,66.914279)" d="m 178.87405,233.08191 a 0.44943228,0.35954583 0 1 1 -0.89886,0 0.44943228,0.35954583 0 1 1 0.89886,0 z" sodipodi:ry="0.35954583" sodipodi:rx="0.44943228" sodipodi:cy="233.08191" sodipodi:cx="178.42462" id="path3995" style="fill:#f5863d;fill-opacity:1;stroke:none" sodipodi:type="arc"/>
  <path transform="matrix(0.40000001,0,0,0.50000001,-18.9613,88.370583)" d="m 178.87405,233.08191 a 0.44943228,0.35954583 0 1 1 -0.89886,0 0.44943228,0.35954583 0 1 1 0.89886,0 z" sodipodi:ry="0.35954583" sodipodi:rx="0.44943228" sodipodi:cy="233.08191" sodipodi:cx="178.42462" id="path3997" style="fill:#f5863d;fill-opacity:1;stroke:none" sodipodi:type="arc"/>
  <path transform="matrix(0.40000001,0,0,0.50000001,-13.30108,90.835933)" d="m 178.87405,233.08191 a 0.44943228,0.35954583 0 1 1 -0.89886,0 0.44943228,0.35954583 0 1 1 0.89886,0 z" sodipodi:ry="0.35954583" sodipodi:rx="0.44943228" sodipodi:cy="233.08191" sodipodi:cx="178.42462" id="path3999" style="fill:#f5863d;fill-opacity:1;stroke:none" sodipodi:type="arc"/>
  <metadata>
    <rdf:RDF>
      <cc:Work>
        <dc:format>image/svg+xml</dc:format>
        <dc:type rdf:resource="http://purl.org/dc/dcmitype/StillImage"/>
        <cc:license rdf:resource="http://creativecommons.org/licenses/publicdomain/"/>
        <dc:publisher>
          <cc:Agent rdf:about="http://openclipart.org/">
            <dc:title>Open Clip Art Library</dc:title>
          </cc:Agent>
        </dc:publisher>
        <dc:title>Man face</dc:title>
        <dc:date>2012-08-03T16:29:29</dc:date>
        <dc:description/>
        <dc:source>http://openclipart.org/detail/171439/man-face-by-cyberscooty-171439</dc:source>
        <dc:creator>
          <cc:Agent>
            <dc:title>cyberscooty</dc:title>
          </cc:Agent>
        </dc:creator>
        <dc:subject>
          <rdf:Bag>
            <rdf:li>clip art</rdf:li>
            <rdf:li>clipart</rdf:li>
            <rdf:li>face</rdf:li>
            <rdf:li>homme</rdf:li>
            <rdf:li>human</rdf:li>
            <rdf:li>man</rdf:li>
            <rdf:li>visage</rdf:li>
          </rdf:Bag>
        </dc:subject>
      </cc:Work>
      <cc:License rdf:about="http://creativecommons.org/licenses/publicdomain/">
        <cc:permits rdf:resource="http://creativecommons.org/ns#Reproduction"/>
        <cc:permits rdf:resource="http://creativecommons.org/ns#Distribution"/>
        <cc:permits rdf:resource="http://creativecommons.org/ns#DerivativeWorks"/>
      </cc:License>
    </rdf:RDF>
  </metadata>
</svg>